<?xml version="1.0" encoding="utf-8"?>
<!-- Generator: Adobe Illustrator 16.0.0, SVG Export Plug-In . SVG Version: 6.00 Build 0)  -->
<!DOCTYPE svg PUBLIC "-//W3C//DTD SVG 1.1//EN" "http://www.w3.org/Graphics/SVG/1.1/DTD/svg11.dtd">
<svg version="1.1" id="Layer_1" xmlns="http://www.w3.org/2000/svg" xmlns:xlink="http://www.w3.org/1999/xlink" x="0px" y="0px"
	 width="390.674px" height="93.045px" viewBox="0 0 390.674 93.045" enable-background="new 0 0 390.674 93.045"
	 xml:space="preserve">
<rect x="-462" y="-1177" fill="none" width="1224" height="2428.64"/>
<g>
	<g>
		<path fill="#231F20" d="M7.393,57.577v-5.443c3.972,1.357,8.102,2.042,12.392,2.042c5.696,0,8.544-1.704,8.544-5.108
			c0-3.176-1.871-4.768-5.615-4.768h-5.788C9.434,44.3,5.69,40.783,5.69,33.746c0-6.81,4.959-10.213,14.878-10.213
			c4.27,0,8.385,0.568,12.36,1.703v5.446c-3.975-1.36-8.09-2.04-12.36-2.04c-5.945,0-8.918,1.698-8.918,5.104
			c0,3.178,1.757,4.768,5.276,4.768h5.788c7.943,0,11.917,3.52,11.917,10.553c0,6.812-4.951,10.215-14.846,10.215
			C15.495,59.281,11.365,58.715,7.393,57.577"/>
		<path fill="#231F20" d="M40.946,59.281V23.535h4.255l1.055,4.491c4.109-2.996,8.183-4.491,12.223-4.491
			c4.493,0,7.684,1.633,9.566,4.901c4.564-3.269,8.842-4.901,12.836-4.901c7.537,0,11.303,4.526,11.303,13.585v22.161h-6.296V36.777
			c0-5.333-2.25-8.001-6.742-8.001c-3.359,0-6.504,1.542-9.432,4.63v25.875h-6.299v-22.4c0-5.401-2.226-8.104-6.674-8.104
			c-3.539,0-6.706,1.542-9.498,4.63v25.875L40.946,59.281L40.946,59.281z"/>
		<path fill="#231F20" d="M98.129,48.149c0-7.33,4.835-11,14.504-11c3.563,0,6.673,0.23,9.329,0.684v-3.371
			c0-3.882-3.21-5.823-9.636-5.823c-3.675,0-7.445,0.565-11.3,1.702v-5.106c3.855-1.135,7.625-1.701,11.3-1.701
			c10.624,0,15.934,3.811,15.934,11.44V59.28h-3.2l-2.52-2.516c-3.109,1.676-6.762,2.516-10.96,2.516
			C102.613,59.281,98.129,55.571,98.129,48.149 M112.633,42.257c-5.469,0-8.204,1.935-8.204,5.789c0,4.088,2.383,6.127,7.151,6.127
			c4.356,0,7.816-0.931,10.382-2.789v-8.445C119.464,42.483,116.356,42.257,112.633,42.257"/>
		<path fill="#231F20" d="M136.381,59.281V23.535h4.257l1.123,4.56c3.133-3.043,6.901-4.56,11.304-4.56v5.241
			c-4.266,0-7.729,1.51-10.382,4.526v25.979H136.381z"/>
		<path fill="#231F20" d="M157.804,17.744h3.949l1.359,5.789h8.308v5.107h-7.318v20.528c0,3.338,1.44,5.008,4.324,5.008h2.994v5.105
			h-4.629c-5.992,0-8.987-3.208-8.987-9.634V17.744L157.804,17.744z"/>
		<path fill="#956955" d="M177.179,10.594h6.298v14.642c2.699-1.132,5.596-1.701,8.681-1.701c11.303,0,16.956,5.72,16.956,17.158
			c0,12.391-5.936,18.588-17.803,18.588c-5.135,0-9.843-0.487-14.132-1.464V10.594z M183.477,53.052
			c2.063,0.66,4.571,0.985,7.521,0.985c7.944,0,11.917-4.529,11.917-13.585c0-7.645-3.598-11.473-10.789-11.473
			c-3.267,0-6.152,0.616-8.649,1.84V53.052z"/>
		<path fill="#956955" d="M220.872,15.705h-6.303v-5.111h6.303V15.705z M220.872,59.281h-6.303V23.534h6.303V59.281z"/>
		<polygon fill="#956955" points="227.323,23.533 253.539,23.533 253.539,28.642 234.235,54.515 252.858,54.515 252.858,59.281 
			226.646,59.281 226.646,54.515 246.222,28.642 227.323,28.642 		"/>
		<path fill="#BC6124" d="M171.718,83.649v0.004C151.721,86.967,88.396,95.04,3.551,66.719
			c41.665,6.778,118.184,15.619,167.937,1.903L171.718,83.649z"/>
		<path fill="#818285" d="M286.094,36.656l0.964-1.138c1.432,1.296,2.81,1.945,4.711,1.945c1.844,0,3.061-0.983,3.061-2.334v-0.04
			c0-1.271-0.688-2.003-3.574-2.611c-3.16-0.686-4.607-1.704-4.607-3.963v-0.039c0-2.157,1.9-3.749,4.513-3.749
			c2,0,3.432,0.569,4.823,1.686l-0.897,1.2c-1.276-1.042-2.552-1.495-3.965-1.495c-1.787,0-2.925,0.982-2.925,2.218v0.04
			c0,1.294,0.705,2.024,3.728,2.67c3.062,0.667,4.476,1.787,4.476,3.883v0.045c0,2.353-1.963,3.883-4.689,3.883
			C289.526,38.856,287.742,38.13,286.094,36.656"/>
		<path fill="#818285" d="M300.112,24.923h5.848c1.566,0,2.807,0.45,3.588,1.218c0.57,0.586,0.887,1.313,0.887,2.197v0.037
			c0,1.786-1.102,2.709-2.182,3.18c1.628,0.491,2.945,1.432,2.945,3.319v0.04c0,2.353-1.983,3.746-4.984,3.746h-6.102V24.923z
			 M305.702,31.045c1.861,0,3.16-0.845,3.16-2.452V28.55c0-1.352-1.08-2.233-3.043-2.233h-4.178v4.729L305.702,31.045
			L305.702,31.045z M306.25,37.266c2.083,0,3.378-0.92,3.378-2.452v-0.041c0-1.49-1.256-2.355-3.65-2.355h-4.336v4.848H306.25z"/>
		<path fill="#818285" d="M319.562,24.827h1.451l6.26,13.833h-1.668l-1.609-3.63h-7.473l-1.633,3.63h-1.591L319.562,24.827z
			 M323.388,33.636l-3.119-7.006l-3.144,7.006H323.388z"/>
		<rect x="336.922" y="24.333" fill="#818285" width="1.515" height="14.326"/>
		<path fill="#818285" d="M341.655,33.636V33.6c0-2.864,2.234-5.299,5.301-5.299c3.039,0,5.277,2.391,5.277,5.256V33.6
			c0,2.863-2.258,5.295-5.318,5.295C343.873,38.895,341.655,36.501,341.655,33.636 M350.681,33.636V33.6
			c0-2.182-1.627-3.969-3.767-3.969c-2.198,0-3.709,1.787-3.709,3.925V33.6c0,2.175,1.606,3.943,3.75,3.943
			C349.149,37.542,350.681,35.774,350.681,33.636"/>
		<path fill="#818285" d="M354.623,35.717v-0.041c0-2.175,1.771-3.317,4.337-3.317c1.3,0,2.201,0.181,3.102,0.434V32.48
			c0-1.81-1.097-2.751-2.998-2.751c-1.201,0-2.143,0.295-3.082,0.729l-0.453-1.238c1.119-0.51,2.199-0.864,3.688-0.864
			c1.433,0,2.552,0.394,3.278,1.12c0.705,0.708,1.057,1.688,1.057,2.98v6.203h-1.49v-1.513c-0.707,0.902-1.861,1.73-3.646,1.73
			C356.515,38.877,354.623,37.796,354.623,35.717 M362.081,34.928V33.99c-0.744-0.217-1.729-0.432-2.962-0.432
			c-1.886,0-2.964,0.825-2.964,2.04v0.039c0,1.274,1.177,2.019,2.55,2.019C360.573,37.656,362.081,36.542,362.081,34.928"/>
		<path fill="#818285" d="M367.224,28.515h1.514v1.766c0.666-1.1,1.724-1.98,3.476-1.98c2.451,0,3.882,1.646,3.882,4.059v6.301
			h-1.509v-5.923c0-1.888-1.022-3.067-2.808-3.067c-1.748,0-3.041,1.28-3.041,3.183v5.808h-1.514V28.515L367.224,28.515z"/>
		<path fill="#818285" d="M378.856,37.362l0.767-1.079c1.097,0.825,2.315,1.298,3.513,1.298c1.215,0,2.1-0.63,2.1-1.61v-0.037
			c0-1.021-1.195-1.417-2.529-1.786c-1.591-0.452-3.357-1.002-3.357-2.865V31.24c0-1.745,1.453-2.904,3.453-2.904
			c1.238,0,2.609,0.432,3.648,1.12l-0.686,1.14c-0.938-0.609-2.019-0.982-3.004-0.982c-1.193,0-1.96,0.628-1.96,1.471v0.039
			c0,0.962,1.253,1.334,2.609,1.75c1.567,0.468,3.259,1.078,3.259,2.901v0.039c0,1.923-1.592,3.043-3.611,3.043
			C381.604,38.856,379.995,38.288,378.856,37.362"/>
		<path fill="#818285" d="M286.743,48.135h1.514v1.707c0.662-1.001,1.565-1.924,3.276-1.924c1.646,0,2.704,0.884,3.253,2.021
			c0.727-1.119,1.809-2.021,3.576-2.021c2.33,0,3.765,1.571,3.765,4.083v6.275h-1.515v-5.92c0-1.967-0.977-3.066-2.625-3.066
			c-1.531,0-2.807,1.143-2.807,3.141v5.848h-1.492v-5.965c0-1.902-1.002-3.022-2.608-3.022c-1.608,0-2.823,1.335-2.823,3.198v5.789
			h-1.514V48.135L286.743,48.135z"/>
		<path fill="#818285" d="M304.388,55.337v-0.041c0-2.177,1.766-3.314,4.334-3.314c1.297,0,2.201,0.181,3.104,0.434v-0.312
			c0-1.81-1.098-2.75-3.001-2.75c-1.198,0-2.14,0.293-3.082,0.726l-0.453-1.235c1.121-0.51,2.198-0.863,3.69-0.863
			c1.436,0,2.551,0.394,3.277,1.117c0.705,0.709,1.057,1.688,1.057,2.982v6.199h-1.488v-1.506c-0.707,0.897-1.863,1.725-3.65,1.725
			C306.269,58.495,304.388,57.416,304.388,55.337 M311.843,54.554v-0.945c-0.742-0.217-1.726-0.428-2.958-0.428
			c-1.891,0-2.968,0.822-2.968,2.038v0.037c0,1.275,1.177,2.021,2.552,2.021C310.33,57.276,311.843,56.163,311.843,54.554"/>
		<path fill="#818285" d="M315.715,53.237v-0.041c0-3.317,2.407-5.278,4.847-5.278c1.883,0,3.099,1.021,3.881,2.158v-6.122h1.514
			v14.322h-1.514v-2.039c-0.821,1.218-2.018,2.258-3.881,2.258C318.122,58.495,315.715,56.571,315.715,53.237 M324.503,53.215
			v-0.034c0-2.339-1.784-3.908-3.666-3.908c-1.964,0-3.577,1.449-3.577,3.908v0.034c0,2.396,1.65,3.925,3.577,3.925
			C322.719,57.14,324.503,55.554,324.503,53.215"/>
		<path fill="#818285" d="M333.567,57.201c1.395,0,2.373-0.567,3.195-1.435l0.942,0.844c-1.019,1.14-2.257,1.906-4.181,1.906
			c-2.787,0-5.062-2.141-5.062-5.303c0-2.943,2.062-5.297,4.866-5.297c3.001,0,4.729,2.395,4.729,5.375c0,0.139,0,0.296-0.02,0.532
			h-8.046C330.209,55.965,331.78,57.201,333.567,57.201 M336.526,52.608c-0.172-1.844-1.231-3.416-3.234-3.416
			c-1.747,0-3.082,1.451-3.299,3.416H336.526z"/>
		<path fill="#818285" d="M350.87,57.201c1.395,0,2.374-0.567,3.193-1.435l0.944,0.844c-1.018,1.14-2.257,1.906-4.181,1.906
			c-2.785,0-5.062-2.141-5.062-5.303c0-2.943,2.062-5.297,4.866-5.297c3.003,0,4.729,2.395,4.729,5.375c0,0.139,0,0.296-0.018,0.532
			h-8.048C347.515,55.965,349.082,57.201,350.87,57.201 M353.829,52.608c-0.171-1.844-1.234-3.416-3.234-3.416
			c-1.746,0-3.08,1.451-3.299,3.416H353.829z"/>
		<path fill="#818285" d="M357.001,55.337v-0.041c0-2.177,1.77-3.314,4.336-3.314c1.299,0,2.201,0.181,3.1,0.434v-0.312
			c0-1.81-1.095-2.75-2.998-2.75c-1.199,0-2.146,0.293-3.084,0.726l-0.451-1.235c1.121-0.51,2.199-0.863,3.688-0.863
			c1.437,0,2.552,0.394,3.28,1.117c0.703,0.709,1.059,1.688,1.059,2.982v6.199h-1.492v-1.506c-0.705,0.897-1.862,1.725-3.645,1.725
			C358.886,58.495,357.001,57.416,357.001,55.337 M364.456,54.554v-0.945c-0.743-0.217-1.727-0.428-2.958-0.428
			c-1.89,0-2.968,0.822-2.968,2.038v0.037c0,1.275,1.181,2.021,2.55,2.021C362.946,57.276,364.456,56.163,364.456,54.554"/>
		<path fill="#818285" d="M367.995,56.983l0.763-1.08c1.103,0.826,2.319,1.298,3.515,1.298c1.218,0,2.103-0.63,2.103-1.613v-0.032
			c0-1.021-1.199-1.418-2.534-1.787c-1.59-0.449-3.355-1.002-3.355-2.865v-0.039c0-1.748,1.453-2.906,3.453-2.906
			c1.237,0,2.61,0.432,3.65,1.121l-0.688,1.138c-0.939-0.61-2.021-0.981-2.998-0.981c-1.198,0-1.965,0.627-1.965,1.468v0.042
			c0,0.962,1.256,1.334,2.607,1.745c1.573,0.474,3.258,1.081,3.258,2.907v0.037c0,1.924-1.59,3.045-3.607,3.045
			C370.74,58.478,369.133,57.907,367.995,56.983"/>
		<path fill="#818285" d="M377.672,60.967l0.511-1.198c0.494,0.258,0.943,0.373,1.592,0.373c0.904,0,1.473-0.47,2.08-1.901
			l-4.609-10.104h1.669l3.685,8.458l3.26-8.458h1.609l-4.26,10.479c-0.861,2.1-1.844,2.864-3.376,2.864
			C378.99,61.479,378.36,61.302,377.672,60.967"/>
		<rect x="272.272" y="10" fill="#818285" width="0.595" height="63.199"/>
	</g>
	<path fill="#231F20" d="M258.696,54.991h-1.438v4.072h-0.554v-4.072h-1.434V54.56h3.427L258.696,54.991L258.696,54.991
		L258.696,54.991z M264.14,59.063h-0.555v-4.026h-0.021l-1.551,4.026h-0.361l-1.551-4.026h-0.02v4.026h-0.561V54.56h1.031
		l1.279,3.328h0.021l1.261-3.328h1.024v4.504H264.14z"/>
</g>
</svg>
