<?xml version="1.0" encoding="utf-8"?>
<!-- Generator: Adobe Illustrator 19.2.0, SVG Export Plug-In . SVG Version: 6.00 Build 0)  -->
<svg version="1.1" id="Layer_1" xmlns="http://www.w3.org/2000/svg" xmlns:xlink="http://www.w3.org/1999/xlink" x="0px" y="0px"
	 viewBox="0 0 80 80" style="enable-background:new 0 0 80 80;" xml:space="preserve">
<style type="text/css">
	.st0{fill:#32BEA6;}
	.st1{fill:#E04F5F;}
	.st2{fill:#FBE158;}
	.st3{fill:#FFFFFF;}
	.st4{fill:#84462D;}
	.st5{fill:#956955;}
	.st6{fill:#56565A;}
</style>
<g>
	<g>
		<circle class="st0" cx="40" cy="40" r="40"/>
	</g>
	<g>
		<g>
			<g>
				<g>
					<g>
						<polygon class="st1" points="42.2,14.5 39.3,16 37,13.7 37.5,16.9 34.7,18.4 37.8,18.9 38.3,22.1 39.8,19.2 43,19.7
							40.7,17.4 						"/>
					</g>
				</g>
			</g>
		</g>
		<g>
			<g>
				<g>
					<g>
						<polygon class="st1" points="52.8,28 49.9,29.4 47.6,27.2 48.1,30.3 45.2,31.8 48.4,32.3 48.9,35.5 50.4,32.6 53.6,33.1
							51.3,30.9 						"/>
					</g>
				</g>
			</g>
		</g>
		<g>
			<g>
				<g>
					<g>
						<polygon class="st1" points="53.5,13.4 50.6,14.9 48.3,12.6 48.8,15.8 46,17.3 49.1,17.8 49.6,21 51.1,18.1 54.3,18.6
							52,16.3 						"/>
					</g>
				</g>
			</g>
		</g>
		<g>
			<path class="st2" d="M23.8,29.6c-1.5-1.4-5.5-7.1-5.5-7.1s5.9,3.8,7.4,5.2c1.5,1.4,2.3,3,1.7,3.5C26.9,31.8,25.3,31.1,23.8,29.6z
				"/>
		</g>
		<g>
			<g>
				<g>
					<g>
						<path class="st3" d="M21.2,39.8c1,1.2,2.8,1.4,4,0.4c3.6-2.9,6.1-1.3,6.1-1.3s-1.9,2.6-2.2,8.5c-5.2,1.5-7.7,8.2-8.4,10.3
							c0.8,1.2,2.1,2.3,3.8,3.4c2.1-9.1,9.7-9.1,9.7-9.1c1.9,1.8,9.1,3.1,12.2,2.2c1.3,5.4,5.3,4.8,7.7,6.5c1.9,1.4,1.7,3.7,1.4,4.8
							c1.2-0.4,2.2-1,2.9-1.7c0.3-0.3,0.7-0.5,1.1-0.5c0.2-2.2-0.6-5.6-2.4-7.2c4.7-7.2,1.9-10.9-2.9-12.9c-3.5-1.4-7.9-1.9-11.5-2
							c-1.1,0-2.1,0-2.9,0c1.4-7.7-2.1-12.2-7.6-13.2c-2.5-0.4-4.9,0.8-6.8,2.3c-2.2,1.7-3.9,4.1-4.6,5.7c-0.5,1.2-0.7,2.4,0.1,3.4
							C21,39.6,21.1,39.7,21.2,39.8z"/>
					</g>
				</g>
			</g>
			<g>
				<g>
					<g>
						<path class="st4" d="M42.8,41.2c-1.1,0-2.1,0-2.9,0c1.4-7.7-2.1-12.2-7.6-13.2c-2.5-0.4-4.9,0.8-6.8,2.3
							c0.3-1.9,1.7-6.2,8.4-5C42.1,26.8,43.5,36.1,42.8,41.2z"/>
					</g>
				</g>
			</g>
			<g>
				<g>
					<g>
						<path class="st5" d="M55.9,44c3.2,1.9,4.9,4.9,2.6,9.8c1.4,3.2,3,6.1,4.6,6.3C65.6,46,62.4,43.8,55.9,44z"/>
					</g>
				</g>
			</g>
			<g>
				<g>
					<g>

							<ellipse transform="matrix(0.1748 -0.9846 0.9846 0.1748 -8.7541 54.497)" class="st6" cx="28.1" cy="32.5" rx="1.5" ry="1.5"/>
					</g>
				</g>
			</g>
			<g>
				<g>
					<g>
						<path class="st5" d="M33.8,25.4c-6.7-1.2-8.1,3-8.4,5c1.9-1.5,4.3-2.7,6.8-2.3c4.9,0.9,8.1,4.4,7.9,10.5l2.7-1.9
							C42.4,31.8,40,26.5,33.8,25.4z"/>
					</g>
				</g>
			</g>
		</g>
	</g>
</g>
</svg>
